<?xml version="1.0" encoding="UTF-8" standalone="no"?>
<!-- Created with Inkscape (http://www.inkscape.org/) -->

<svg
   width="130"
   height="48"
   viewBox="0 0 186.14987 64.004648"
   version="1.1"
   id="svg1"
   xml:space="preserve"
   inkscape:version="1.4.2 (ebf0e940, 2025-05-08)"
   sodipodi:docname="brennlabs.svg"
   inkscape:export-filename="brennlabs.png"
   inkscape:export-xdpi="96"
   inkscape:export-ydpi="96"
   xmlns:inkscape="http://www.inkscape.org/namespaces/inkscape"
   xmlns:sodipodi="http://sodipodi.sourceforge.net/DTD/sodipodi-0.dtd"
   xmlns="http://www.w3.org/2000/svg"
   xmlns:svg="http://www.w3.org/2000/svg"><sodipodi:namedview
     id="namedview1"
     pagecolor="#ffffff"
     bordercolor="#000000"
     borderopacity="0.25"
     inkscape:showpageshadow="2"
     inkscape:pageopacity="0.0"
     inkscape:pagecheckerboard="0"
     inkscape:deskcolor="#d1d1d1"
     inkscape:document-units="mm"
     inkscape:zoom="0.26636696"
     inkscape:cx="-388.5617"
     inkscape:cy="352.89662"
     inkscape:window-width="1512"
     inkscape:window-height="921"
     inkscape:window-x="0"
     inkscape:window-y="33"
     inkscape:window-maximized="0"
     inkscape:current-layer="layer1"
     inkscape:export-bgcolor="#ffffff00" /><defs
     id="defs1" /><g
     inkscape:label="Layer 1"
     inkscape:groupmode="layer"
     id="layer1"
     transform="translate(-868.85328,-64.810664)"><g
       id="g5-0"
       inkscape:label="CYAN_CHARCOAL"
       transform="translate(900.8433,82.354976)"><g
         id="g3-0-7-7-7-8-9-2-9-0"
         transform="matrix(2.0267525,0,0,2.0267525,-303.04858,-49.713615)"
         inkscape:label="logo"><path
           d="m 148.59259,16.544592 c -0.7248,0.02135 -1.44814,0.284403 -2.22074,0.881405 -0.30361,0.236741 -0.48331,0.341503 -0.85964,0.462465 -0.73099,0.182747 -1.38826,0.522985 -1.94099,1.040094 -0.65337,0.716641 -0.84245,1.49858 -0.83516,2.44744 0.004,0.13513 0.009,0.266472 0.0127,0.397629 0.0263,1.609499 0.10251,3.217225 0.19496,4.824149 0.0172,0.297441 0.0339,0.594808 0.0504,0.892286 0.0441,0.803047 0.089,1.605966 0.13511,2.4089 0.007,0.115326 -0.21788,0.228151 -0.45516,0.347757 -0.0999,0.05728 -0.19687,0.113063 -0.2938,0.168663 l -0.32872,0.187254 c -0.23946,0.137735 -0.47911,0.275317 -0.71909,0.412138 -0.12534,0.07139 -0.24695,0.140632 -0.36861,0.209923 -0.49923,0.284988 -0.99906,0.568484 -1.5012,0.848306 l -0.24302,0.135113 c -0.46259,0.257949 -0.92632,0.513052 -1.39374,0.762161 -0.12613,0.06686 -0.24892,0.13188 -0.37134,0.196775 -0.24981,0.133143 -0.49956,0.266472 -0.74946,0.399443 -0.92434,0.483015 -1.77185,0.913434 -2.37263,1.788652 -0.5248,1.035333 -0.7818,1.940941 -0.43073,3.088091 0.13302,0.336712 0.13325,0.33653 0.0585,0.621154 -0.0654,0.310668 -0.0654,0.310621 -0.0807,0.654253 3.5e-4,0.121439 5.6e-4,0.239408 8.8e-4,0.357277 -0.002,0.559716 0.0511,0.96256 0.2684,1.477169 0.0585,0.121749 0.11552,0.239563 0.1723,0.357731 0.4057,0.865005 1.02221,1.269872 1.82447,1.729258 l 0.29244,0.163676 c 1.33761,0.756907 2.69159,1.4836 4.05202,2.198524 0.37213,0.195214 0.74334,0.391094 1.1099,0.596671 0.80434,0.459322 1.48883,0.805578 2.43838,0.853294 0.8863,-0.05247 1.78679,-0.320391 2.40664,-0.991127 0.28827,-0.394229 0.3382,-0.487324 0.84467,-0.569014 0.83392,-0.05154 0.8339,-0.05163 1.99178,-1.13168 0.53799,-0.734336 0.73592,-1.492575 0.7277,-2.394391 -0.004,-0.110464 -0.007,-0.217872 -0.0104,-0.325086 -0.01,-0.902774 -0.0545,-1.80319 -0.10337,-2.704516 -0.0332,-0.607139 -0.065,-1.213983 -0.0948,-1.821298 -0.005,-0.107427 -0.0103,-0.211749 -0.0154,-0.316018 -0.0153,-0.313121 -0.0302,-0.626314 -0.0454,-0.939439 -0.0104,-0.214865 -0.0209,-0.429868 -0.0313,-0.644732 -0.0309,-0.634758 -0.0618,-1.269505 -0.0925,-1.904269 1.14845,-0.65086 2.29675,-1.302213 3.44945,-1.945529 l 0.24257,-0.135111 c 0.46176,-0.257757 0.92428,-0.512542 1.39147,-0.760348 0.18622,-0.0982 0.18653,-0.09825 0.36907,-0.194508 0.24876,-0.132091 0.49744,-0.264354 0.74629,-0.396269 1.17541,-0.609549 2.19438,-1.223018 2.81016,-2.436105 0.24434,-0.741994 0.31688,-1.711523 0.0381,-2.448799 -0.16299,-0.358616 -0.28643,-0.502473 -0.16775,-0.895007 0.2377,-0.663077 0.24249,-1.381672 0.0575,-2.062505 -0.36737,-0.893924 -0.945,-1.529755 -1.78276,-2.003563 l -0.26886,-0.145994 c -0.19702,-0.110199 -0.39419,-0.220367 -0.59123,-0.330527 -0.31617,-0.174401 -0.63171,-0.349253 -0.94533,-0.528208 -0.54633,-0.314401 -1.09322,-0.627052 -1.64402,-0.933546 -0.23327,-0.129412 -0.46641,-0.259101 -0.69914,-0.389468 -0.37145,-0.21493 -0.74311,-0.429505 -1.11672,-0.64065 -1.04601,-0.57512 -1.98029,-0.947401 -2.91218,-0.919944 z m 0.0621,1.167498 c 0.0774,-0.003 0.15562,-4.71e-4 0.23395,0.005 0.16098,0.01122 0.32291,0.0389 0.48378,0.08433 0.0553,0.01562 0.1106,0.0331 0.16548,0.05259 0.28812,0.138409 0.5657,0.288556 0.84378,0.446143 l 0.31556,0.172292 c 0.33457,0.183509 0.66687,0.370303 0.99929,0.557678 0.22395,0.124808 0.44795,0.249303 0.67193,0.374054 0.55641,0.311294 1.11039,0.626915 1.66352,0.943973 0.31893,0.182177 0.63872,0.362373 0.95894,0.542263 0.19751,0.111935 0.39514,0.223933 0.59259,0.335967 l 0.27158,0.151436 c 0.62826,0.35932 1.09882,0.740756 1.50574,1.351123 0.0297,0.311477 0.0103,0.611145 0,0.924932 -0.42671,-0.161056 -0.81762,-0.353773 -1.21556,-0.576269 l -0.37632,-0.209469 -0.40216,-0.225792 c -0.13901,-0.07762 -0.2781,-0.155032 -0.41713,-0.232593 -0.4296,-0.239807 -0.85896,-0.480275 -1.2881,-0.720902 l -0.20448,-0.114709 c -0.32369,-0.181488 -0.64756,-0.363384 -0.97118,-0.544984 -0.24495,-0.137262 -0.49021,-0.273979 -0.73542,-0.410779 -0.1165,-0.06487 -0.23283,-0.129881 -0.34911,-0.19496 -0.0499,-0.02787 -0.0998,-0.05591 -0.14962,-0.08388 -0.32112,-0.180144 -0.64055,-0.362443 -0.95757,-0.549971 -0.83548,-0.482672 -1.40427,-0.660684 -2.29692,-0.468813 v 0.171384 h -0.23077 c 0.003,0.08526 0.005,0.170592 0.009,0.258437 0.0275,0.809307 0.0547,1.61862 0.0816,2.427944 0.0139,0.415932 0.028,0.831826 0.0422,1.247749 0.0137,0.40249 0.027,0.805347 0.0404,1.207851 0.008,0.225869 0.0154,0.451514 0.0232,0.677375 0.0287,0.873537 0.0412,1.745282 0.0349,2.619277 -0.99703,0.577988 -0.9968,0.578082 -1.38694,0.578082 -0.0896,-0.741669 -0.14518,-1.477697 -0.17728,-2.223914 -0.005,-0.111072 -0.0103,-0.221984 -0.0155,-0.336421 -0.0103,-0.234412 -0.0203,-0.468792 -0.0303,-0.70322 -0.0151,-0.350539 -0.0311,-0.700932 -0.0471,-1.051428 -0.0493,-1.10794 -0.089,-2.216179 -0.1002,-3.325218 -0.002,-0.09371 -0.004,-0.187278 -0.005,-0.283826 -0.003,-0.712466 0.12241,-1.348595 0.6071,-1.901549 l 0.34685,-0.115617 c 0.0676,-0.247093 0.25002,-0.380346 0.45521,-0.520492 l 0.002,-8.77e-4 c 0.0483,-0.03402 0.0978,-0.06564 0.14827,-0.09431 l 0.10609,-0.0671 c 0.0534,-0.02053 0.10677,-0.03932 0.1596,-0.05622 0.19054,-0.07055 0.39091,-0.108553 0.59576,-0.116523 z m -3.08492,1.54926 -0.002,0.274305 c -0.0132,2.283881 -0.013,2.283722 0.0598,4.566166 0.086,1.699417 0.0682,3.399686 0.0576,5.100721 l -1.27133,0.578082 c -0.16883,-1.617829 -0.30237,-3.229261 -0.34685,-4.855433 -0.006,-0.177292 -0.0118,-0.354546 -0.0177,-0.531836 -0.016,-0.503008 -0.0265,-1.005711 -0.0345,-1.508906 -0.004,-0.203188 -0.009,-0.406252 -0.0154,-0.609367 -0.0579,-1.841652 -0.0583,-1.841982 0.45385,-2.441091 0.63514,-0.57302 0.63517,-0.572641 1.11626,-0.572641 z m 3.00557,0.924477 c 0.49251,0.07089 0.8629,0.244087 1.2999,0.478787 l 0.20902,0.111536 c 0.22485,0.120358 0.44909,0.242033 0.67329,0.363625 0.15589,0.08393 0.31153,0.167758 0.46745,0.251636 0.95889,0.5171 1.91377,1.041739 2.8632,1.576009 l 0.31059,0.174559 c 2.60189,1.478473 2.60214,1.478553 3.12843,2.59978 0.16751,0.874792 0.0216,1.475477 -0.45158,2.227995 -0.42808,0.450548 -0.93486,0.706389 -1.47762,1.001556 l -0.35637,0.197681 c -0.94784,0.523929 -1.90095,1.037801 -2.85459,1.551073 -0.78039,0.420782 -1.55324,0.853581 -2.32321,1.293089 -1.03802,0.591796 -2.08757,1.159301 -3.14295,1.719283 -1.16527,0.618337 -2.3244,1.245016 -3.4753,1.88976 -0.60722,0.339071 -1.21619,0.675621 -1.82492,1.011984 -0.22126,0.122329 -0.44219,0.245141 -0.66332,0.367705 -1.99439,1.103702 -1.9945,1.103641 -2.46059,1.094501 -0.34455,-0.114851 -0.6142,-0.234234 -0.90316,-0.45521 v -0.34685 c 1.55312,-0.875411 3.10996,-1.741967 4.67905,-2.588445 0.7477,-0.403575 1.49275,-0.811687 2.2348,-1.225534 0.80805,-0.450578 1.61778,-0.898026 2.42795,-1.344776 0.14442,-0.07966 0.28902,-0.15928 0.43344,-0.238941 0.58353,-0.321827 1.16697,-0.643611 1.75057,-0.965283 0.83493,-0.460199 1.66961,-0.92054 2.50412,-1.381502 0.28626,-0.158118 0.57281,-0.315892 0.85918,-0.473801 0.36078,-0.19896 0.72133,-0.398533 1.08181,-0.598031 0.19988,-0.110522 0.3998,-0.220764 0.59985,-0.33098 1.03636,-0.4835 1.03656,-0.483222 1.8095,-1.256364 0.0316,-0.239688 0.0313,-0.23994 0.0358,-0.505992 0.004,-0.08911 0.009,-0.177962 0.0132,-0.269772 -0.0683,-0.366825 -0.23426,-0.48102 -0.51143,-0.727249 -0.20711,-0.131053 -0.41905,-0.254142 -0.6343,-0.371333 l -0.38131,-0.209469 c -0.1359,-0.07366 -0.27171,-0.147148 -0.40761,-0.220805 -0.21087,-0.115457 -0.42176,-0.231549 -0.63248,-0.347302 -0.14337,-0.07873 -0.28681,-0.157227 -0.43027,-0.235767 -0.7019,-0.384475 -1.39872,-0.777892 -2.09471,-1.172939 -0.2086,-0.118333 -0.41705,-0.236278 -0.62568,-0.354557 l -0.28927,-0.165944 c -0.19284,-0.107406 -0.38823,-0.210313 -0.58579,-0.308763 l -0.28655,-0.145087 -0.25572,-0.123777 c -0.1967,-0.159004 -0.19684,-0.158867 -0.28246,-0.437983 -0.0372,-0.370794 -0.0372,-0.735734 -0.0299,-1.108103 z m 0.60846,2.997864 c 0.11536,-2.91e-4 0.16198,0.02777 0.34822,0.1401 l 0.32508,0.18408 0.35501,0.200854 0.37179,0.212644 c 0.62041,0.350026 1.2442,0.679341 1.80633,1.119438 -1.05204,0.637599 -2.13225,1.194585 -3.2368,1.734245 -0.0812,-1.196984 -0.13274,-2.383377 -0.11562,-3.583653 0.0615,-0.0043 0.10754,-0.0076 0.14599,-0.0077 z m 4.77518,2.459681 c 0.0509,-0.0029 0.10284,-0.0029 0.15643,0 0.14291,0.0077 0.29702,0.03666 0.47108,0.09113 0.26426,0.128768 0.45714,0.283607 0.69369,0.462466 -0.0218,0.20873 -0.0218,0.208805 -0.11561,0.462465 -0.24644,0.182314 -0.24653,0.182422 -0.57627,0.359544 l -0.37314,0.203576 c -0.13626,0.0724 -0.2727,0.144815 -0.40897,0.217177 -0.14094,0.07629 -0.28179,0.152823 -0.42257,0.229419 -0.29605,0.160888 -0.59237,0.320987 -0.88911,0.480602 -0.43727,0.23566 -0.87228,0.47502 -1.30669,0.715914 l -0.21128,0.116977 c -0.14027,0.07778 -0.2805,0.155704 -0.42076,0.233499 -1.22197,0.677074 -2.44877,1.345099 -3.67795,2.009004 -0.73935,0.399671 -1.47588,0.803875 -2.20986,1.213292 -0.66999,0.373669 -1.34166,0.744658 -2.01354,1.114904 -0.28653,0.157892 -0.57288,0.31599 -0.85919,0.474254 -0.65926,0.36433 -1.31868,0.727924 -1.98044,1.0877 -0.2869,0.156136 -0.57323,0.31315 -0.85964,0.470174 -0.20034,0.109464 -0.40165,0.218049 -0.60257,0.326446 -0.87112,0.468287 -0.8707,0.468089 -1.56784,1.151175 -0.0867,0.409531 -0.0867,0.409663 0,0.809316 0.39655,0.511684 0.98324,0.782137 1.53883,1.090874 0.10642,0.05995 0.21271,0.120046 0.32236,0.181812 0.22648,0.127522 0.45328,0.254389 0.68009,0.381307 0.45951,0.257431 0.91736,0.517465 1.37561,0.777123 1.15892,0.656353 2.31996,1.309153 3.48119,1.961398 v 1.503012 c -0.34679,0.115598 -0.34664,0.115489 -0.59849,0.01451 -0.0975,-0.054 -0.19516,-0.108042 -0.29561,-0.163677 -0.11039,-0.06044 -0.22087,-0.120896 -0.33461,-0.183172 -0.11908,-0.06681 -0.23821,-0.13383 -0.3609,-0.202669 -0.12349,-0.06816 -0.24683,-0.136076 -0.37405,-0.206295 -0.38661,-0.213974 -0.77221,-0.429834 -1.15752,-0.646093 -0.1173,-0.06557 -0.23462,-0.131036 -0.35547,-0.198587 -0.66406,-0.371511 -1.32613,-0.746455 -1.98679,-1.123972 -0.31334,-0.17803 -0.62759,-0.353631 -0.94261,-0.528662 -0.19585,-0.110141 -0.3918,-0.220308 -0.58761,-0.330526 -0.0877,-0.04807 -0.17574,-0.09601 -0.26614,-0.145541 -0.85715,-0.486907 -1.59554,-1.087606 -1.87254,-2.065225 -0.0802,-0.677398 -0.10274,-1.316798 0.30787,-1.889761 0.65633,-0.811051 1.57964,-1.253504 2.48098,-1.737419 0.14915,-0.08103 0.29848,-0.161791 0.44751,-0.243022 0.30906,-0.168345 0.61818,-0.336599 0.92765,-0.504178 0.64514,-0.349779 1.28705,-0.704832 1.92921,-1.060042 0.34739,-0.192069 0.69521,-0.383675 1.04281,-0.575362 0.49471,-0.272893 0.98909,-0.545887 1.48352,-0.81929 1.50348,-0.831359 3.00907,-1.658821 4.52083,-2.475096 0.67489,-0.364749 1.3475,-0.733295 2.01761,-1.106743 l 0.24575,-0.136019 c 0.48449,-0.268264 0.96541,-0.541841 1.44497,-0.818836 0.22862,-0.129785 0.45733,-0.259308 0.68599,-0.389015 l 0.32282,-0.189973 c 0.39557,-0.222351 0.69506,-0.379649 1.05097,-0.399898 z m -5.61487,8.41415 c 0.26289,2.354983 0.36702,4.742998 0.38766,7.111993 0.002,0.170093 0.004,0.340453 0.007,0.510526 0.0288,1.653673 0.0288,1.65374 -0.51053,2.319127 -0.24339,0.230743 -0.2431,0.230554 -0.48378,0.397177 l -0.24347,0.172744 c -0.19733,0.123273 -0.19724,0.123324 -0.31285,0.123324 l 0.004,-0.335061 c 0.0238,-2.400344 -0.0172,-4.784999 -0.16912,-7.180908 -0.0239,-0.384535 -0.0446,-0.769208 -0.0657,-1.153898 l -0.0272,-0.387654 c -0.0411,-0.914274 -0.0232,-1.020791 0.59077,-1.309865 l 0.31692,-0.160503 c 0.27545,-0.107018 0.27526,-0.107002 0.50644,-0.107002 z m -2.19625,1.27178 c 0.1456,2.117496 0.25868,4.235653 0.27838,6.358446 0.002,0.200183 0.005,0.400601 0.01,0.600751 0.0239,1.213245 0.0339,2.258698 -0.83968,3.203707 -0.52401,0.498019 -1.00134,0.701685 -1.73108,0.705486 -0.8605,-0.106281 -1.60863,-0.600868 -2.3554,-1.013797 -0.16462,-0.08951 -0.32945,-0.17914 -0.4942,-0.26841 -0.41036,-0.223039 -0.81922,-0.447917 -1.2278,-0.674203 -0.21365,-0.118241 -0.42754,-0.236092 -0.64156,-0.35365 -0.35912,-0.1977 -0.71758,-0.396721 -1.07546,-0.596671 l -0.31103,-0.173198 c -2.2468,-1.274176 -2.24688,-1.274194 -2.55716,-2.362654 l -0.088,-0.300149 c -0.0637,-0.27048 -0.064,-0.270735 -0.064,-0.617527 0.40153,0.151316 0.76316,0.327458 1.13169,0.546797 l 0.32508,0.192241 0.34957,0.207656 c 1.29992,0.765364 2.61282,1.503262 3.93458,2.230262 0.45854,0.252619 0.91313,0.5103 1.36382,0.776669 l 0.287,0.167304 c 0.17125,0.100205 0.34149,0.202167 0.51053,0.306043 0.39883,0.231209 0.63336,0.313541 1.09904,0.294255 0.35792,-0.09595 0.49645,-0.148503 0.70911,-0.443875 0.14494,-0.28988 0.13018,-0.488687 0.13057,-0.812942 2.2e-4,-0.118903 6.8e-4,-0.237945 8.8e-4,-0.360451 -5.2e-4,-0.127862 -8.8e-4,-0.255465 -0.002,-0.387202 -2.2e-4,-0.131512 -2.2e-4,-0.263038 -4.6e-4,-0.398536 -0.004,-0.814007 -0.0321,-1.621978 -0.088,-2.433838 -0.0802,-1.269188 -0.0509,-2.543394 -0.0412,-3.814432 0.44894,-0.264645 0.85256,-0.577355 1.38694,-0.578082 z m -2.19626,1.040094 c 0.0984,1.620034 0.13074,3.232535 0.11562,4.855433 -0.91528,-0.262611 -1.69078,-0.682929 -2.51409,-1.156164 l -0.38902,-0.22035 c -0.53877,-0.306013 -1.07462,-0.615496 -1.60503,-0.935813 0.13433,-0.402974 0.18102,-0.415266 0.54227,-0.596671 l 0.27068,-0.13874 0.29244,-0.145994 c 0.20001,-0.102105 0.39962,-0.204357 0.59938,-0.306949 l 0.30651,-0.156876 c 0.53607,-0.280532 1.06012,-0.582561 1.58326,-0.886392 0.54253,-0.311289 0.54264,-0.311484 0.79798,-0.311484 z"
           style="display:inline;fill:#ffffff;fill-opacity:1;stroke-width:0.877378"
           id="path62-8-6-6-2-3-1-4-8-9"
           sodipodi:nodetypes="ccccccccccccccccccccccccccccccccccccccccccccccccccccccccccccccscccccccccccccccccccccccccccccccccccccccccccccccccccccccccscccccccccccccccccccccccccsscccccccccccccccccccccccccccccccsccccccccccccccscccccccccccccccccccccccccccccccccccccsscccccccccccccccccccccccccccccccccccccccccccccccccccccccccc"
           inkscape:label="bg" /><g
           id="g2-9-3-4-3-90-55-7-6-0"
           inkscape:label="fg"><path
             style="display:inline;fill:#818589;fill-opacity:1;stroke-width:0.877378"
             d="m 148.5753,20.186067 c -0.007,0.372366 -0.007,0.737151 0.03,1.107942 0.0856,0.279116 0.0859,0.278696 0.28267,0.4377 l 0.25528,0.124023 0.2868,0.145211 c 0.19756,0.09845 0.39266,0.201102 0.5855,0.308508 l 0.28939,0.165881 c 0.20863,0.118279 0.4172,0.236168 0.6258,0.354501 0.69599,0.395047 1.39306,0.78858 2.09496,1.173055 0.14346,0.07854 0.28658,0.156921 0.42995,0.235644 0.21072,0.115753 0.42165,0.231809 0.63252,0.347266 0.1359,0.07366 0.27182,0.147513 0.40772,0.221175 l 0.38138,0.20929 c 0.21525,0.117191 0.42696,0.2405 0.63407,0.371553 0.27717,0.246229 0.44336,0.360263 0.51159,0.727088 -0.004,0.09181 -0.009,0.180642 -0.0134,0.269751 -0.009,0.606181 -0.32184,0.947992 -1.84541,1.762166 -0.20005,0.110216 -0.39957,0.220724 -0.59945,0.331246 -0.36048,0.199498 -0.72132,0.398936 -1.0821,0.597896 -0.28637,0.157909 -0.5726,0.315755 -0.85886,0.473873 -0.83451,0.460962 -1.66931,0.921112 -2.50424,1.381311 -0.5836,0.321672 -1.16727,0.643489 -1.7508,0.965316 -0.14442,0.07966 -0.28863,0.159601 -0.43305,0.239262 -0.81017,0.44675 -1.62022,0.894042 -2.42827,1.34462 -0.74205,0.413847 -1.48679,0.82219 -2.23449,1.225765 -1.56909,0.846478 -3.12618,1.713062 -4.6793,2.588473 v 0.346749 c 0.28896,0.220976 0.55875,0.340418 0.9033,0.455269 0.46609,0.0091 0.46593,0.0092 2.46032,-1.094507 0.22113,-0.122564 0.44226,-0.245607 0.66352,-0.367936 0.60873,-0.336363 1.21748,-0.672753 1.8247,-1.011824 1.1509,-0.644744 2.30997,-1.271471 3.47524,-1.889808 1.05538,-0.559982 2.10494,-1.127478 3.14296,-1.719274 0.76997,-0.439508 1.54298,-0.872163 2.32337,-1.292945 0.95364,-0.513272 1.90676,-1.027397 2.8546,-1.551326 l 0.35657,-0.197921 c 0.54276,-0.295167 1.04935,-0.550941 1.47743,-1.001489 0.47315,-0.752518 0.61916,-1.352979 0.45165,-2.227771 -0.52629,-1.121227 -0.5266,-1.121369 -3.12849,-2.599842 l -0.31057,-0.174666 c -0.94943,-0.53427 -1.9045,-1.059031 -2.86339,-1.576131 -0.15592,-0.08388 -0.31127,-0.167216 -0.46716,-0.251148 -0.2242,-0.121592 -0.44849,-0.243444 -0.67334,-0.363802 l -0.20929,-0.111621 c -0.43699,-0.23469 -0.80718,-0.407623 -1.29967,-0.478523 z"
             id="path8-4-9-3"
             inkscape:label="7" /><path
             id="path42-5-41-3-5-5-5-1-0-1"
             style="display:inline;fill:#23272a;fill-opacity:1;stroke-width:0.877378"
             d="m 148.65473,17.71229 c -0.48529,0.01894 -0.84199,0.173653 -1.30596,0.492095 -0.34946,0.301015 -0.54846,0.48313 -0.54131,0.538246 0.0327,0.251701 0.55725,0.226924 0.94773,0.824068 1.03027,-0.275351 1.63349,-0.299884 2.53875,0.2231 0.36623,0.216641 0.73603,0.425984 1.1076,0.633349 0.36167,0.201618 0.72292,0.403393 1.08414,0.605813 0.32374,0.181668 0.64763,0.363574 0.97144,0.545129 l 0.20474,0.114737 c 0.42914,0.240629 0.85825,0.480996 1.28786,0.720805 0.13903,0.07756 0.27787,0.154912 0.41688,0.232534 l 0.4026,0.225905 0.37609,0.209332 c 0.39794,0.222496 0.70224,0.403981 1.23865,0.723354 0.0103,-0.313792 0.035,-0.746091 -0.0232,-1.071646 -0.40693,-0.610382 -0.8776,-0.992023 -1.50587,-1.351349 l -0.27129,-0.151453 c -0.19746,-0.112036 -0.39529,-0.223862 -0.5928,-0.335798 -0.32022,-0.179893 -0.64002,-0.35989 -0.95895,-0.542069 -0.55314,-0.317063 -1.10702,-0.632861 -1.66344,-0.94416 -0.22398,-0.124751 -0.4479,-0.249491 -0.67185,-0.374299 -0.33242,-0.187375 -0.66492,-0.374112 -0.99949,-0.557622 l -0.31514,-0.171851 c -0.27808,-0.157588 -0.55584,-0.308301 -0.84396,-0.44671 -0.29208,-0.103747 -0.59179,-0.152801 -0.88296,-0.14151 z m 5.30418,7.931147 c -0.35591,0.02025 -0.65543,0.177444 -1.051,0.399795 l -0.32279,0.189954 c -0.22866,0.129708 -0.45726,0.259301 -0.68588,0.389087 -0.47956,0.276995 -0.96043,0.550451 -1.44492,0.818714 l -0.24579,0.136154 c -0.67011,0.373448 -1.3427,0.742082 -2.01759,1.106832 -1.51176,0.816275 -3.01742,1.64365 -4.5209,2.475009 -0.49443,0.273402 -0.98872,0.54633 -1.48343,0.819224 -0.3476,0.191687 -0.69544,0.383403 -1.04283,0.575471 -0.64216,0.35521 -1.28423,0.710137 -1.92937,1.059917 -0.30947,0.167579 -0.61853,0.335989 -0.92759,0.504334 -0.14903,0.08123 -0.29832,0.161962 -0.44747,0.242988 -0.90134,0.483916 -1.82455,0.926326 -2.48088,1.737376 -0.41061,0.572964 -0.38816,1.212452 -0.308,1.88985 0.277,0.97762 1.01536,1.578108 1.87251,2.065015 0.0904,0.04953 0.17846,0.09752 0.26619,0.145588 0.19581,0.110218 0.39186,0.220557 0.58771,0.330699 0.31502,0.17503 0.62929,0.350526 0.94263,0.528556 0.66066,0.377517 1.32268,0.752405 1.98674,1.123915 0.12085,0.06755 0.23813,0.133056 0.35543,0.198622 0.38531,0.216259 0.77096,0.432125 1.15757,0.646098 0.12722,0.07022 0.25055,0.138118 0.37404,0.206272 0.12269,0.06884 0.24171,0.13589 0.36079,0.202703 0.11374,0.06228 0.22438,0.122625 0.33477,0.183069 0.10045,0.05563 0.19804,0.109694 0.29552,0.163692 0.25185,0.10098 0.25162,0.101066 0.59841,-0.01453 v -1.502803 c -1.16123,-0.652246 -2.3222,-1.305144 -3.48112,-1.961496 -0.45825,-0.259658 -0.91606,-0.519724 -1.37557,-0.777154 -0.22681,-0.126918 -0.45353,-0.253659 -0.68001,-0.381182 -0.10965,-0.06177 -0.21612,-0.121845 -0.32254,-0.181795 -0.55559,-0.308737 -1.14221,-0.579338 -1.53876,-1.091023 -0.0867,-0.399653 -0.0867,-0.39975 0,-0.80928 0.69714,-0.683087 0.6967,-0.68291 1.56782,-1.151197 0.20092,-0.108397 0.40216,-0.216899 0.6025,-0.326364 0.28641,-0.157024 0.57287,-0.314032 0.85977,-0.470167 0.66176,-0.359777 1.3211,-0.723379 1.98036,-1.087709 0.28631,-0.158264 0.57272,-0.316355 0.85925,-0.474247 0.67188,-0.370247 1.34353,-0.741322 2.01352,-1.114991 0.73398,-0.409417 1.47048,-0.813739 2.20983,-1.21341 1.22918,-0.663906 2.456,-1.331847 3.67797,-2.008921 0.14026,-0.0778 0.28043,-0.155773 0.4207,-0.233554 l 0.21137,-0.116777 c 0.43441,-0.240895 0.86946,-0.4803 1.30673,-0.71596 0.29674,-0.159615 0.59304,-0.319734 0.88909,-0.480622 0.14078,-0.0766 0.28155,-0.153186 0.42249,-0.229474 0.13627,-0.07237 0.27271,-0.144838 0.40897,-0.217236 l 0.37328,-0.203467 c 0.32974,-0.177121 0.3298,-0.177195 0.57624,-0.35951 0.0938,-0.253659 0.0937,-0.253789 0.1155,-0.462519 -0.23655,-0.178859 -0.42952,-0.333749 -0.69378,-0.462518 -0.17406,-0.05448 -0.32802,-0.08328 -0.47093,-0.09103 -0.0536,-0.0029 -0.1057,-0.0029 -0.15655,0 z"
             inkscape:label="2" /><path
             id="path49-23-5-4-35-7-2-8-1-1"
             style="display:inline;fill:#06b6d4;fill-opacity:1;stroke-width:0.877378"
             d="m 148.05903,17.828603 c -0.22882,0.08049 0,0 0,0 z m -1.15579,0.788373 -0.0617,0.06629 c -0.48469,0.552954 -0.60946,1.189112 -0.60709,1.901578 0.002,0.09655 0.004,0.190076 0.005,0.283784 0.0112,1.109039 0.0509,2.217398 0.10021,3.325339 0.0161,0.350495 0.0318,0.700709 0.0469,1.051248 0.01,0.234427 0.0202,0.468799 0.0306,0.703212 0.005,0.114437 0.0103,0.22549 0.0153,0.336562 0.0321,0.746216 0.0875,1.543642 0.1772,2.285311 0.59846,-0.108895 0.87478,-0.262972 1.38705,-0.639469 0.006,-0.873995 -0.006,-1.745786 -0.0349,-2.619323 -0.008,-0.225861 -0.0156,-0.45159 -0.0232,-0.67746 -0.0133,-0.402503 -0.0268,-0.80531 -0.0405,-1.2078 -0.0141,-0.415923 -0.0282,-0.831898 -0.0421,-1.247831 -0.027,-0.809323 -0.0541,-1.618533 -0.0816,-2.42784 0.0107,-0.124259 -0.004,-0.07518 -0.005,-0.199897 -0.351,-0.441712 -0.62468,-0.700917 -0.62468,-0.700917 z m -1.3335,0.644313 c -0.48109,0 -0.48112,-3.54e-4 -1.11626,0.572666 -0.51218,0.599109 -0.51178,0.599446 -0.45385,2.441098 0.007,0.203115 0.0118,0.406194 0.0155,0.609382 0.008,0.503195 0.0184,1.005914 0.0344,1.508922 0.006,0.17729 0.0118,0.354579 0.0176,0.531871 0.0445,1.626172 0.17818,3.318421 0.34701,4.93625 l 1.27129,-0.658847 c 0.0105,-1.701035 0.0284,-3.401289 -0.0576,-5.100706 -0.0728,-2.282444 -0.0731,-2.282406 -0.0599,-4.566287 z M 148.25,34.052701 c -0.47406,-2.02e-4 -0.98522,0.336942 -1.07343,0.396736 -0.30829,0.347549 -0.28308,0.373522 -0.24655,1.185363 l 0.0273,0.387812 c 0.0211,0.38469 0.0417,0.769211 0.0655,1.153746 0.15195,2.395909 0.1931,4.780676 0.1693,7.18102 l -0.004,0.335033 c 0.1156,0 0.11552,-1.33e-4 0.31285,-0.123406 l 0.2435,-0.172616 c 0.24068,-0.166623 0.2403,-0.166503 0.48368,-0.397246 0.53927,-0.665387 0.53921,-0.665548 0.51045,-2.319221 -0.004,-0.170073 -0.005,-0.340361 -0.007,-0.510454 -0.0206,-2.368995 -0.12467,-4.756939 -0.38756,-7.111922 -0.0311,-0.0032 -0.0625,-0.0048 -0.0941,-0.0048 z m -2.10224,1.276643 c -0.51447,-0.02319 -1.00578,0.281393 -1.38679,0.578021 -0.01,1.271038 -0.0391,2.545187 0.0411,3.814375 0.0558,0.81186 0.084,1.619952 0.0882,2.433959 2.4e-4,0.135498 4e-5,0.267008 2.6e-4,0.39852 5.4e-4,0.131737 9.1e-4,0.259185 0.002,0.387047 -2.4e-4,0.122506 -5.8e-4,0.241627 -7.7e-4,0.36053 -3.9e-4,0.324255 0.0144,0.523224 -0.13054,0.813104 -0.21267,0.295372 -0.35117,0.3477 -0.70908,0.443651 -0.46568,0.01928 -0.70035,-0.06303 -1.09918,-0.294237 -0.16905,-0.103876 -0.3392,-0.205761 -0.51045,-0.305966 l -0.2871,-0.167262 c -0.45069,-0.266369 -0.9053,-0.524024 -1.36384,-0.776643 -1.32176,-0.727 -2.63455,-1.464873 -3.93447,-2.230237 l -0.34957,-0.207802 -0.32509,-0.192248 c -0.36853,-0.219339 -0.7303,-0.395343 -1.13182,-0.546659 0,0.346792 2.6e-4,0.347061 0.064,0.617541 l 0.0882,0.300102 c 0.31028,1.08846 0.31031,1.08839 2.55711,2.362566 l 0.31107,0.173381 c 0.35788,0.19995 0.71635,0.398934 1.07547,0.596634 0.21402,0.117558 0.42786,0.235404 0.64151,0.353645 0.40858,0.226286 0.81732,0.451106 1.22769,0.674145 0.16475,0.08927 0.32951,0.178978 0.49413,0.268485 0.74676,0.412929 1.49493,0.907486 2.35543,1.013767 0.72973,-0.0038 1.20725,-0.207487 1.73126,-0.705506 0.87356,-0.945009 0.8635,-1.990473 0.83962,-3.203718 -0.004,-0.20015 -0.007,-0.40053 -0.01,-0.600713 -0.0197,-2.122793 -0.13283,-4.240986 -0.27843,-6.358482 z m -2.19607,1.040029 c -0.25534,0 -0.25553,2.86e-4 -0.79806,0.311575 -0.52314,0.303831 -1.0473,0.60575 -1.58337,0.886282 l -0.30648,0.156807 c -0.19976,0.102592 -0.39917,0.204881 -0.59918,0.306986 l -0.29245,0.146099 -0.27078,0.138704 c -0.36125,0.181405 -0.408,0.19366 -0.54233,0.596634 0.53041,0.320317 1.06628,0.629733 1.60505,0.935746 l 0.38909,0.22055 c 0.82331,0.473235 1.59874,0.89343 2.51402,1.156041 0.0151,-1.622898 -0.0171,-3.23539 -0.11551,-4.855424 z"
             inkscape:label="B" /></g></g><text
         xml:space="preserve"
         style="font-style:normal;font-variant:normal;font-weight:500;font-stretch:normal;font-size:39.1347px;font-family:Debussy;-inkscape-font-specification:'Debussy Medium';text-align:start;letter-spacing:0.264584px;writing-mode:lr-tb;direction:ltr;text-anchor:start;fill:#06b6d4;fill-opacity:1;stroke:#ffffff;stroke-width:1.779;stroke-linecap:round;stroke-linejoin:round;stroke-dasharray:none;stroke-opacity:1"
         x="22.910852"
         y="11.8352"
         id="text1-9"
         inkscape:label="brenn"><tspan
           sodipodi:role="line"
           id="tspan1-0"
           style="letter-spacing:0.264584px;fill:#06b6d4;fill-opacity:1;stroke:#ffffff;stroke-width:1.779;stroke-linecap:round;stroke-linejoin:round;stroke-dasharray:none;stroke-opacity:1;paint-order:normal"
           x="22.910852"
           y="11.8352">BRENN</tspan></text><text
         xml:space="preserve"
         style="font-style:normal;font-variant:normal;font-weight:500;font-stretch:normal;font-size:39.1347px;font-family:Debussy;-inkscape-font-specification:'Debussy Medium';text-align:start;letter-spacing:1.09802px;writing-mode:lr-tb;direction:ltr;text-anchor:start;fill:#1f2937;fill-opacity:1;stroke:#f8f9fa;stroke-width:1.77927;stroke-linecap:round;stroke-linejoin:round;stroke-dasharray:none;stroke-opacity:1"
         x="23.010649"
         y="44.972763"
         id="text1-5-2"
         inkscape:label="labs"><tspan
           sodipodi:role="line"
           id="tspan1-5-1"
           style="letter-spacing:1.09802px;fill:#1f2937;fill-opacity:1;stroke:#f8f9fa;stroke-width:1.77927;stroke-linecap:round;stroke-linejoin:round;stroke-dasharray:none;stroke-opacity:1;paint-order:normal"
           x="23.010649"
           y="44.972763">LABS</tspan></text><g
         id="g4-5"
         transform="translate(-36.850726,-2.6144453)"
         inkscape:label="tm"><path
           d="m 168.35491,18.599743 -0.4563,0.0057 c -0.52704,0.003 -0.94214,0.147643 -1.44281,0.175184 l -0.42736,0.0041 c -0.3208,0.0065 -0.6414,0.01256 -0.96222,0.01809 -0.47217,0.0038 -0.9418,0.01409 -1.41335,0.03876 -0.6829,0.08518 -1.22307,0.297436 -1.68723,0.828373 -0.26304,0.597928 -0.40341,1.062714 -0.30851,1.727026 0.17969,0.503324 0.33235,0.942113 0.80874,1.215947 l 0.24494,0.101286 c -0.003,0.2213 -0.005,0.442732 -0.006,0.664042 -6.1e-4,0.09344 -0.001,0.184225 -0.002,0.274918 -0.009,0.748483 -0.0105,1.464949 0.28009,2.16576 0.36882,0.464001 0.75995,0.754598 1.30948,0.979785 0.65458,0.10792 1.15871,0.07371 1.76217,-0.205672 0.3181,-0.223072 0.31793,-0.223116 0.59014,-0.13746 l 0.28267,0.07958 c 0.59319,0.05016 1.13174,0.109011 1.6552,-0.197404 0.48538,-0.298698 0.95085,-0.275368 1.50688,-0.197921 0.50467,0.257704 0.8662,0.433865 1.43299,0.461471 0.71156,-0.02576 1.21649,-0.227164 1.7291,-0.725021 0.68142,-1.128604 0.48628,-2.815603 0.30799,-4.082954 l -0.0445,-0.264584 c -0.15615,-1.049485 -0.49565,-1.813403 -1.2516,-2.569352 -0.71173,-0.305027 -1.41073,-0.25391 -2.17403,-0.197404 -0.40358,0.08242 -0.67114,0.188226 -1.04903,0.0098 -0.26865,-0.141532 -0.26835,-0.141718 -0.68523,-0.172083 z m -0.31626,1.306897 c 0.56981,0.209929 0.71975,0.417018 1.00511,0.935343 0.17394,0.411917 0.22693,0.768589 0.25476,1.21388 h 0.26355 c 0.0122,-0.163045 0.0123,-0.163357 0.0248,-0.329696 0.13788,-0.59393 0.34921,-1.064426 0.76584,-1.515153 0.46938,-0.164691 0.46953,-0.164713 0.92243,-0.131775 0.55307,0.358747 0.65504,0.826022 0.79013,1.449524 0.10921,0.745467 0.15592,1.470153 0.15658,2.22312 0.002,0.09987 0.004,0.199933 0.005,0.302824 6.8e-4,0.256148 -0.0138,0.512278 -0.03,0.767912 -0.26351,0.263507 -0.26307,0.263201 -0.65009,0.304374 -0.4035,-0.04117 -0.40397,-0.04093 -0.62115,-0.194303 -0.24262,-0.32957 -0.24436,-0.585788 -0.26821,-0.991154 l -0.0263,-0.396875 -0.015,-0.303341 -0.17311,0.436666 c -0.297,0.679243 -0.29694,0.679226 -0.61754,0.881083 -0.40741,0.05093 -0.66962,0.07765 -1.02112,-0.148311 -0.21803,-0.327045 -0.31929,-0.661777 -0.42788,-1.037663 l -0.0532,0.341065 -0.0703,0.441316 -0.0698,0.439767 c -0.0705,0.358719 -0.0703,0.359172 -0.20206,0.490926 -0.30737,0.0054 -0.61505,0.0056 -0.92242,0 -0.66103,-1.033511 -0.25738,-2.917152 -0.10904,-4.086056 0.17901,-0.645936 0.40127,-1.030968 1.08882,-1.093473 z m -3.64784,0.262 c 0.15378,-0.0054 0.3165,-0.0028 0.49403,0.001 l 0.29817,-0.001 c 1.18627,0.01155 1.18614,0.01153 1.61231,0.437699 0.0247,0.321149 0.0247,0.321256 0,0.658874 -0.26351,0.263507 -0.26368,0.263618 -0.67541,0.280087 l -0.37879,-0.01654 0.007,0.307992 c 0.008,0.459958 0.013,0.919757 0.0181,1.379761 l 0.0103,0.485241 0.004,0.464571 0.006,0.428398 c -0.0449,0.35933 -0.0448,0.359275 -0.22014,0.603064 -0.3427,0.236035 -0.60639,0.202414 -1.01028,0.151929 -0.21992,-0.153273 -0.21998,-0.153338 -0.39532,-0.395325 -0.0449,-0.347236 -0.045,-0.347237 -0.0388,-0.759127 l 0.004,-0.446484 0.01,-0.466122 0.006,-0.470772 c 0.005,-0.383912 0.011,-0.767499 0.0191,-1.151351 l -0.92243,-0.131775 -0.13177,-0.922424 c 0.4441,-0.333959 0.82333,-0.421405 1.28467,-0.437699 z"
           style="fill:#ffffff;fill-opacity:1"
           id="path52-4" /><path
           d="m 168.03865,19.90664 c -0.68755,0.06251 -0.90981,0.447537 -1.08882,1.093473 -0.14834,1.168904 -0.55199,3.052545 0.10904,4.086056 0.30737,0.0056 0.61505,0.0054 0.92242,0 0.13176,-0.131754 0.13155,-0.132207 0.20206,-0.490926 l 0.0698,-0.439767 0.0703,-0.441316 0.0532,-0.341065 c 0.10859,0.375886 0.20985,0.710618 0.42788,1.037663 0.3515,0.225963 0.61371,0.199238 1.02112,0.148311 0.3206,-0.201857 0.32054,-0.20184 0.61754,-0.881083 l 0.17311,-0.436666 0.015,0.303341 0.0263,0.396875 c 0.0239,0.405366 0.0256,0.661584 0.26821,0.991154 0.21718,0.153369 0.21765,0.15313 0.62115,0.194303 0.38702,-0.04117 0.38658,-0.04087 0.65009,-0.304374 0.0162,-0.255634 0.0307,-0.511764 0.03,-0.767912 -0.002,-0.102891 -0.004,-0.202959 -0.005,-0.302824 -6.6e-4,-0.752967 -0.0474,-1.477653 -0.15658,-2.22312 -0.13509,-0.623502 -0.23706,-1.090777 -0.79013,-1.449524 -0.4529,-0.03294 -0.45305,-0.03292 -0.92243,0.131775 -0.41663,0.450727 -0.62796,0.921223 -0.76584,1.515153 -0.0125,0.166339 -0.0126,0.166651 -0.0248,0.329696 h -0.26355 c -0.0278,-0.445291 -0.0808,-0.801963 -0.25476,-1.21388 -0.28536,-0.518325 -0.4353,-0.725414 -1.00511,-0.935343 z"
           style="fill:#818589;fill-opacity:1"
           id="path47-9" /><path
           d="m 164.39081,20.16864 c -0.46134,0.01629 -0.84057,0.10374 -1.28467,0.437699 l 0.13177,0.922424 0.92243,0.131775 c -0.008,0.383852 -0.0145,0.767439 -0.0191,1.151351 l -0.006,0.470772 -0.01,0.466122 -0.004,0.446484 c -0.006,0.41189 -0.006,0.411891 0.0388,0.759127 0.17534,0.241987 0.1754,0.242052 0.39532,0.395325 0.40389,0.05048 0.66758,0.08411 1.01028,-0.151929 0.17533,-0.243789 0.17527,-0.243734 0.22014,-0.603064 l -0.006,-0.428398 -0.004,-0.464571 -0.0103,-0.485241 c -0.005,-0.460004 -0.01,-0.919803 -0.0181,-1.379761 l -0.007,-0.307992 0.37879,0.01654 c 0.41173,-0.01647 0.4119,-0.01658 0.67541,-0.280087 0.0247,-0.337618 0.0247,-0.337725 0,-0.658874 -0.42617,-0.426172 -0.42604,-0.426152 -1.61231,-0.437699 l -0.29817,0.001 c -0.17753,-0.0038 -0.34025,-0.0065 -0.49403,-0.001 z"
           style="fill:#818589;fill-opacity:1"
           id="path38-0" /></g></g></g></svg>
